<?xml version="1.0" encoding="UTF-8"?>
<svg xmlns="http://www.w3.org/2000/svg" xmlns:xlink="http://www.w3.org/1999/xlink" viewBox="0 0 72 72">
  <defs>
    <style>
      .cls-1 {
        fill: #002ed3;
      }

      .cls-2 {
        mix-blend-mode: color-dodge;
      }

      .cls-3 {
        fill: #daff00;
      }

      .cls-4 {
        clip-path: url(#clippath-1);
      }

      .cls-5 {
        fill: #388a99;
      }

      .cls-6 {
        isolation: isolate;
      }

      .cls-7 {
        fill: #eb3424;
      }

      .cls-8 {
        clip-path: url(#clippath);
      }
    </style>
    <clipPath id="clippath">
      <circle class="cls-1" cx="-104.47" cy="38.2" r="64"/>
    </clipPath>
    <clipPath id="clippath-1">
      <circle class="cls-1" cx="36" cy="36" r="36"/>
    </clipPath>
  </defs>
  <g class="cls-6">
    <g id="Layer_1">
      <g>
        <circle class="cls-1" cx="-104.47" cy="38.2" r="64"/>
        <g class="cls-8">
          <rect class="cls-1" x="-.96" y="1.95" width="2.42" height="2.42" transform="translate(-2.91 3.42) rotate(-90)"/>
          <rect class="cls-1" x="1.46" y="4.36" width="2.42" height="2.42" transform="translate(-2.89 8.24) rotate(-90)"/>
          <rect class="cls-1" x="-.96" y="6.75" width="2.42" height="2.42" transform="translate(-7.71 8.21) rotate(-90)"/>
          <rect class="cls-1" x="-.96" y="45.23" width="2.42" height="2.42" transform="translate(-46.19 46.69) rotate(-90)"/>
          <rect class="cls-1" x="1.46" y="47.63" width="2.42" height="2.42" transform="translate(-46.17 51.52) rotate(-90)"/>
          <rect class="cls-1" x="-.96" y="50.03" width="2.42" height="2.42" transform="translate(-50.99 51.49) rotate(-90)"/>
        </g>
      </g>
      <g>
        <g>
          <circle class="cls-1" cx="36" cy="36" r="36"/>
          <g class="cls-4">
            <g id="SVGID">
              <circle class="cls-1" cx="36" cy="36" r="36"/>
            </g>
          </g>
        </g>
        <path class="cls-7" d="M39.9,7.65c-2.6,1.84-4.17,5.05-4.55,9.28v.02c-.36,4-.91,10.05-4.98,14.5-1.19,1.3-2.52,2.34-3.96,3.12,1.08,2.16,2.47,4.17,4.15,5.96l27.97-28.12c-3.64-3.38-8.04-5.48-12.63-6.3-1.69-.21-3.96.1-6,1.55Z"/>
        <path class="cls-7" d="M16.73,36.11c.92,4.37,3,8.55,6.26,12.02l6.3-6.34c-1.83-1.95-3.35-4.14-4.51-6.49-2.39.91-5.08,1.18-8.05.81Z"/>
        <path class="cls-7" d="M55.55,38.63h-.02c-3.76.36-9.44.9-13.43,4.6-1.11,1.03-2,2.17-2.67,3.41,4.4,1.79,9.28,2.33,14.09,1.45,4.92-.9,10.17-5.04,11.79-9.28.66-2.02,1.07-4.1,1.21-6.2-.14.23-.28.46-.43.68-1.49,2.12-4.53,4.77-10.54,5.35Z"/>
        <path class="cls-7" d="M24.03,33.67c-1.96-4.71-2.58-9.96-1.66-15.13.45-2.52,1.62-5.07,3.21-7.29-.72.58-1.41,1.2-2.07,1.87-5.74,5.77-8.1,13.65-7.1,21.16,2.83.43,5.38.23,7.62-.6Z"/>
        <path class="cls-7" d="M25.66,32.93c1.24-.68,2.37-1.57,3.4-2.69,3.67-4.01,4.18-9.69,4.52-13.46v-.02c.54-6.02,3.18-9.07,5.29-10.57.22-.16.45-.3.68-.44-2.1.15-4.18.57-6.19,1.24-4.23,1.65-8.34,6.92-9.22,11.84-.86,4.81-.29,9.69,1.53,14.08Z"/>
        <path class="cls-7" d="M40.89,41.92c4.43-4.1,10.47-4.68,14.47-5.06h.02c4.23-.4,7.43-2,9.26-4.6,1.44-2.05,1.74-4.32,1.52-6.01-.85-4.58-2.98-8.97-6.37-12.59l-27.97,28.12c1.8,1.67,3.82,3.05,5.98,4.12.77-1.45,1.8-2.78,3.09-3.98Z"/>
        <path class="cls-7" d="M37.06,47.52c-2.35-1.15-4.55-2.65-6.51-4.48l-6.3,6.34c3.49,3.23,7.67,5.3,12.05,6.19-.39-2.97-.13-5.66.76-8.05Z"/>
        <path class="cls-7" d="M61.12,46.59c-2.21,1.6-4.76,2.79-7.27,3.25-5.17.95-10.42.36-15.14-1.58-.82,2.25-1,4.79-.56,7.62,7.51.97,15.38-1.44,21.12-7.21.66-.67,1.28-1.36,1.86-2.08Z"/>
        <g class="cls-2">
          <path class="cls-5" d="M22.59,56.03h-10.46l7.85-24.93h-6.3l2.94-9.45h25.74l-3.06,9.45h-8.77l-7.96,24.93ZM17.03,52.43h2.93l7.96-24.93h8.78l.73-2.26h-18.16l-.7,2.26h6.31l-7.85,24.93Z"/>
        </g>
        <g class="cls-2">
          <path class="cls-5" d="M44.43,66.12h-20.72l4.07-12.65h9.74l-7.63-6.4,4.61-13.65h21.3l-4.33,12.25h-9.11l7.07,6.02-5,14.44ZM28.64,62.52h13.23l3.36-9.7-8.76-7.46,2.11-6.39h9.44l-1.08,3.1h2l1.79-5.06h-13.64l-3,8.88,9.1,7.63-2.79,7.08h-9.1l1.23-3.54h-2.11l-1.76,5.47ZM36.33,57.01h1.61l.94-2.4-1.33-1.12-1.22,3.51ZM40.64,44.19l1.34,1.14.97-2.77h-1.78l-.54,1.63Z"/>
        </g>
        <path class="cls-3" d="M33,25.79h-8.31l-7.54,23.62h-6.34l7.43-23.62h-7.47l1.73-5.55h22.29l-1.79,5.55Z"/>
        <path class="cls-3" d="M38.48,59.41h-16.08l2.76-8.58h5.63l-1.16,3.36h5.07l1.77-4.49-8.57-7.19,3.6-10.67h16.55l-2.9,8.2h-5.5l1.03-2.94h-5.31l-1.25,3.8,8.32,7.08-3.96,11.43Z"/>
      </g>
    </g>
  </g>
</svg>